STARTFONT 2.1
COMMENT converted Oberon font (using FontToBDF by R.Crelier 10.1.91)
FONT Times16b.Scn.Fnt
SIZE 16 75 75
FONTBOUNDINGBOX  17 19 0 -4
STARTPROPERTIES 3
FONT_ASCENT 15
FONT_DESCENT 4
DEFAULT_CHAR 0
ENDPROPERTIES
CHARS 121
STARTCHAR c0
ENCODING -1 0
SWIDTH 0 0
DWIDTH 0 0
BBX 0 0 0 0
BITMAP
ENDCHAR
STARTCHAR c9
ENCODING -1 9
SWIDTH 516 0
DWIDTH 16 0
BBX 0 0 0 0
BITMAP
ENDCHAR
STARTCHAR c32
ENCODING -1 32
SWIDTH 129 0
DWIDTH 4 0
BBX 0 0 0 0
BITMAP
ENDCHAR
STARTCHAR c33
ENCODING -1 33
SWIDTH 193 0
DWIDTH 6 0
BBX 3 12 2 0
BITMAP
E0
E0
E0
E0
E0
C0
C0
00
00
E0
E0
E0
ENDCHAR
STARTCHAR c34
ENCODING -1 34
SWIDTH 290 0
DWIDTH 9 0
BBX 7 6 1 6
BITMAP
EE
EE
66
66
44
88
ENDCHAR
STARTCHAR c35
ENCODING -1 35
SWIDTH 354 0
DWIDTH 11 0
BBX 10 12 0 0
BITMAP
0900
0900
0900
7FC0
7FC0
1200
1200
FF80
FF80
2400
2400
2400
ENDCHAR
STARTCHAR c36
ENCODING -1 36
SWIDTH 354 0
DWIDTH 11 0
BBX 9 16 1 -2
BITMAP
0800
0800
3F80
6980
E880
E880
F800
7E00
3F00
0F80
8B80
8B80
CB00
FE00
0800
0800
ENDCHAR
STARTCHAR c37
ENCODING -1 37
SWIDTH 483 0
DWIDTH 15 0
BBX 13 12 1 0
BITMAP
7080
D880
D980
D900
DB00
DA70
72D8
06D8
04D8
0CD8
08D8
0870
ENDCHAR
STARTCHAR c38
ENCODING -1 38
SWIDTH 419 0
DWIDTH 13 0
BBX 11 12 1 0
BITMAP
1F00
3980
3980
3B00
1C00
1E60
6E40
E740
E780
E380
E5C0
79E0
ENDCHAR
STARTCHAR c39
ENCODING -1 39
SWIDTH 161 0
DWIDTH 5 0
BBX 3 6 1 6
BITMAP
E0
E0
60
60
40
80
ENDCHAR
STARTCHAR c40
ENCODING -1 40
SWIDTH 225 0
DWIDTH 7 0
BBX 5 17 1 -4
BITMAP
08
10
20
60
40
C0
C0
C0
C0
C0
C0
C0
40
60
20
10
08
ENDCHAR
STARTCHAR c41
ENCODING -1 41
SWIDTH 225 0
DWIDTH 7 0
BBX 5 17 1 -4
BITMAP
80
40
20
30
10
18
18
18
18
18
18
18
10
30
20
40
80
ENDCHAR
STARTCHAR c42
ENCODING -1 42
SWIDTH 322 0
DWIDTH 10 0
BBX 9 10 1 0
BITMAP
0800
0800
C980
6B00
1C00
1C00
6B00
C980
0800
0800
ENDCHAR
STARTCHAR c43
ENCODING -1 43
SWIDTH 322 0
DWIDTH 10 0
BBX 9 9 1 0
BITMAP
0800
0800
0800
0800
FF80
0800
0800
0800
0800
ENDCHAR
STARTCHAR c44
ENCODING -1 44
SWIDTH 161 0
DWIDTH 5 0
BBX 3 7 1 -4
BITMAP
E0
E0
E0
60
40
40
80
ENDCHAR
STARTCHAR c45
ENCODING -1 45
SWIDTH 161 0
DWIDTH 5 0
BBX 5 1 0 4
BITMAP
F8
ENDCHAR
STARTCHAR c46
ENCODING -1 46
SWIDTH 161 0
DWIDTH 5 0
BBX 3 3 1 0
BITMAP
E0
E0
E0
ENDCHAR
STARTCHAR c47
ENCODING -1 47
SWIDTH 290 0
DWIDTH 9 0
BBX 7 12 2 0
BITMAP
06
04
0C
08
18
10
30
20
60
40
C0
80
ENDCHAR
STARTCHAR c48
ENCODING -1 48
SWIDTH 322 0
DWIDTH 10 0
BBX 8 12 1 0
BITMAP
3C
66
E7
E7
E7
E7
E7
E7
E7
E7
66
3C
ENDCHAR
STARTCHAR c49
ENCODING -1 49
SWIDTH 322 0
DWIDTH 10 0
BBX 7 12 2 0
BITMAP
18
F8
38
38
38
38
38
38
38
38
38
FE
ENDCHAR
STARTCHAR c50
ENCODING -1 50
SWIDTH 322 0
DWIDTH 10 0
BBX 8 12 1 0
BITMAP
3E
7F
87
07
07
0E
0C
18
30
61
FF
FF
ENDCHAR
STARTCHAR c51
ENCODING -1 51
SWIDTH 322 0
DWIDTH 10 0
BBX 8 12 1 0
BITMAP
3E
7F
8F
06
04
3E
7F
0F
07
07
CE
F0
ENDCHAR
STARTCHAR c52
ENCODING -1 52
SWIDTH 322 0
DWIDTH 10 0
BBX 9 12 0 0
BITMAP
0600
0E00
1E00
1E00
2E00
4E00
4E00
FF80
FF80
0E00
0E00
0E00
ENDCHAR
STARTCHAR c53
ENCODING -1 53
SWIDTH 322 0
DWIDTH 10 0
BBX 8 12 1 0
BITMAP
3F
3E
20
40
7C
FE
FF
07
03
02
7C
78
ENDCHAR
STARTCHAR c54
ENCODING -1 54
SWIDTH 322 0
DWIDTH 10 0
BBX 8 12 1 0
BITMAP
0F
38
70
60
E0
EE
F7
E7
E7
E7
66
3C
ENDCHAR
STARTCHAR c55
ENCODING -1 55
SWIDTH 322 0
DWIDTH 10 0
BBX 8 12 1 0
BITMAP
FF
FF
FE
86
0C
0C
0C
18
18
18
30
30
ENDCHAR
STARTCHAR c56
ENCODING -1 56
SWIDTH 322 0
DWIDTH 10 0
BBX 8 12 1 0
BITMAP
3E
E3
E3
E3
F6
7C
3E
6F
C7
C7
C7
7C
ENDCHAR
STARTCHAR c57
ENCODING -1 57
SWIDTH 322 0
DWIDTH 10 0
BBX 8 12 1 0
BITMAP
3C
66
E7
E7
E7
EF
77
07
06
0E
1C
F0
ENDCHAR
STARTCHAR c58
ENCODING -1 58
SWIDTH 193 0
DWIDTH 6 0
BBX 3 9 2 0
BITMAP
E0
E0
E0
00
00
00
E0
E0
E0
ENDCHAR
STARTCHAR c59
ENCODING -1 59
SWIDTH 193 0
DWIDTH 6 0
BBX 3 13 2 -4
BITMAP
E0
E0
E0
00
00
00
E0
E0
E0
60
40
40
80
ENDCHAR
STARTCHAR c60
ENCODING -1 60
SWIDTH 354 0
DWIDTH 11 0
BBX 9 9 1 0
BITMAP
0380
0E00
3800
E000
8000
E000
3800
0E00
0380
ENDCHAR
STARTCHAR c61
ENCODING -1 61
SWIDTH 322 0
DWIDTH 10 0
BBX 8 4 1 2
BITMAP
FF
00
00
FF
ENDCHAR
STARTCHAR c62
ENCODING -1 62
SWIDTH 354 0
DWIDTH 11 0
BBX 9 9 1 0
BITMAP
E000
3800
0E00
0380
0080
0380
0E00
3800
E000
ENDCHAR
STARTCHAR c63
ENCODING -1 63
SWIDTH 290 0
DWIDTH 9 0
BBX 7 12 1 0
BITMAP
7C
CE
CE
0E
0C
08
18
18
00
00
18
18
ENDCHAR
STARTCHAR c64
ENCODING -1 64
SWIDTH 580 0
DWIDTH 18 0
BBX 14 14 2 -2
BITMAP
07C0
1830
2008
43E8
44C4
8CC4
88C4
9984
9B88
9D98
99E0
4000
6000
1F80
ENDCHAR
STARTCHAR c65
ENCODING -1 65
SWIDTH 387 0
DWIDTH 12 0
BBX 11 12 0 0
BITMAP
0600
0600
0F00
0F00
1700
1780
1380
2380
3FC0
21C0
61C0
F3E0
ENDCHAR
STARTCHAR c66
ENCODING -1 66
SWIDTH 387 0
DWIDTH 12 0
BBX 10 12 1 0
BITMAP
FF00
71C0
71C0
71C0
7180
7E00
7180
71C0
71C0
71C0
71C0
FF00
ENDCHAR
STARTCHAR c67
ENCODING -1 67
SWIDTH 387 0
DWIDTH 12 0
BBX 10 12 1 0
BITMAP
1FC0
70C0
7040
E040
E000
E000
E000
E000
E040
7040
7180
1F00
ENDCHAR
STARTCHAR c68
ENCODING -1 68
SWIDTH 451 0
DWIDTH 14 0
BBX 12 12 1 0
BITMAP
FF80
70E0
70E0
7070
7070
7070
7070
7070
7070
70E0
70E0
FF00
ENDCHAR
STARTCHAR c69
ENCODING -1 69
SWIDTH 387 0
DWIDTH 12 0
BBX 10 12 1 0
BITMAP
FFC0
70C0
7040
7140
7100
7F00
7100
7100
7040
7040
70C0
FFC0
ENDCHAR
STARTCHAR c70
ENCODING -1 70
SWIDTH 354 0
DWIDTH 11 0
BBX 10 12 1 0
BITMAP
FFC0
70C0
7040
7140
7100
7F00
7100
7100
7000
7000
7000
F800
ENDCHAR
STARTCHAR c71
ENCODING -1 71
SWIDTH 451 0
DWIDTH 14 0
BBX 12 12 1 0
BITMAP
1FA0
70E0
7060
E020
E020
E000
E1F0
E0E0
E0E0
70E0
70E0
1F80
ENDCHAR
STARTCHAR c72
ENCODING -1 72
SWIDTH 451 0
DWIDTH 14 0
BBX 12 12 1 0
BITMAP
F9F0
70E0
70E0
70E0
70E0
7FE0
70E0
70E0
70E0
70E0
70E0
F9F0
ENDCHAR
STARTCHAR c73
ENCODING -1 73
SWIDTH 225 0
DWIDTH 7 0
BBX 5 12 1 0
BITMAP
F8
70
70
70
70
70
70
70
70
70
70
F8
ENDCHAR
STARTCHAR c74
ENCODING -1 74
SWIDTH 290 0
DWIDTH 9 0
BBX 8 12 0 0
BITMAP
3F
0E
0E
0E
0E
0E
0E
0E
0E
CE
CC
F0
ENDCHAR
STARTCHAR c75
ENCODING -1 75
SWIDTH 419 0
DWIDTH 13 0
BBX 12 12 1 0
BITMAP
F9F0
70C0
7180
7100
7200
7E00
7700
7700
7380
7380
71C0
F9E0
ENDCHAR
STARTCHAR c76
ENCODING -1 76
SWIDTH 354 0
DWIDTH 11 0
BBX 9 12 1 0
BITMAP
FC00
7000
7000
7000
7000
7000
7000
7080
7080
7180
7380
FF80
ENDCHAR
STARTCHAR c77
ENCODING -1 77
SWIDTH 548 0
DWIDTH 17 0
BBX 15 12 1 0
BITMAP
F83E
783C
783C
5C5C
5C5C
5C5C
4E9C
4E9C
4E9C
471C
471C
E73E
ENDCHAR
STARTCHAR c78
ENCODING -1 78
SWIDTH 451 0
DWIDTH 14 0
BBX 12 12 1 0
BITMAP
F870
7820
5C20
5E20
4E20
4720
47A0
43A0
41E0
41E0
40E0
E060
ENDCHAR
STARTCHAR c79
ENCODING -1 79
SWIDTH 451 0
DWIDTH 14 0
BBX 12 12 1 0
BITMAP
1F80
70E0
70E0
E070
E070
E070
E070
E070
E070
70E0
70E0
1F80
ENDCHAR
STARTCHAR c80
ENCODING -1 80
SWIDTH 354 0
DWIDTH 11 0
BBX 10 12 1 0
BITMAP
FF00
7180
71C0
71C0
71C0
7180
7E00
7000
7000
7000
7000
FC00
ENDCHAR
STARTCHAR c81
ENCODING -1 81
SWIDTH 451 0
DWIDTH 14 0
BBX 13 15 1 -3
BITMAP
1F80
70E0
70E0
E070
E070
E070
E070
E070
E070
70E0
70E0
1F00
03C0
01E0
00F8
ENDCHAR
STARTCHAR c82
ENCODING -1 82
SWIDTH 387 0
DWIDTH 12 0
BBX 11 12 1 0
BITMAP
FF80
71C0
71C0
71C0
7180
7E00
7700
7700
7380
7380
71C0
FDE0
ENDCHAR
STARTCHAR c83
ENCODING -1 83
SWIDTH 354 0
DWIDTH 11 0
BBX 9 12 1 0
BITMAP
3F80
4380
C180
C080
F800
FF00
7F80
0F80
8180
C180
E100
FE00
ENDCHAR
STARTCHAR c84
ENCODING -1 84
SWIDTH 354 0
DWIDTH 11 0
BBX 11 12 0 0
BITMAP
FFE0
CE60
8E20
8E20
0E00
0E00
0E00
0E00
0E00
0E00
0E00
3F80
ENDCHAR
STARTCHAR c85
ENCODING -1 85
SWIDTH 451 0
DWIDTH 14 0
BBX 12 12 1 0
BITMAP
F870
7020
7020
7020
7020
7020
7020
7020
7020
7020
3840
1F80
ENDCHAR
STARTCHAR c86
ENCODING -1 86
SWIDTH 354 0
DWIDTH 11 0
BBX 11 12 0 0
BITMAP
F9E0
70C0
7080
7880
3880
3900
3D00
1D00
1E00
1E00
0C00
0C00
ENDCHAR
STARTCHAR c87
ENCODING -1 87
SWIDTH 548 0
DWIDTH 17 0
BBX 17 12 0 0
BITMAP
FBE780
71C300
71C200
79E200
38E200
38E400
3D7400
1D7400
1E7800
1E7800
0C3000
0C3000
ENDCHAR
STARTCHAR c88
ENCODING -1 88
SWIDTH 354 0
DWIDTH 11 0
BBX 11 12 0 0
BITMAP
FCE0
7840
3880
3D00
1E00
1E00
0F00
0F00
1780
2380
43C0
E7E0
ENDCHAR
STARTCHAR c89
ENCODING -1 89
SWIDTH 354 0
DWIDTH 11 0
BBX 11 12 0 0
BITMAP
F8E0
7040
7880
3880
3D00
1D00
1E00
0E00
0E00
0E00
0E00
3F80
ENDCHAR
STARTCHAR c90
ENCODING -1 90
SWIDTH 354 0
DWIDTH 11 0
BBX 10 12 0 0
BITMAP
7FC0
6380
4780
4700
0F00
0E00
1C00
3C40
3840
78C0
71C0
FFC0
ENDCHAR
STARTCHAR c91
ENCODING -1 91
SWIDTH 225 0
DWIDTH 7 0
BBX 5 17 2 -4
BITMAP
F8
C0
C0
C0
C0
C0
C0
C0
C0
C0
C0
C0
C0
C0
C0
C0
F8
ENDCHAR
STARTCHAR c92
ENCODING -1 92
SWIDTH 290 0
DWIDTH 9 0
BBX 7 12 1 0
BITMAP
C0
40
60
20
30
10
18
08
0C
04
06
02
ENDCHAR
STARTCHAR c93
ENCODING -1 93
SWIDTH 225 0
DWIDTH 7 0
BBX 5 17 0 -4
BITMAP
F8
18
18
18
18
18
18
18
18
18
18
18
18
18
18
18
F8
ENDCHAR
STARTCHAR c94
ENCODING -1 94
SWIDTH 354 0
DWIDTH 11 0
BBX 9 10 1 0
BITMAP
0800
1C00
2A00
6B00
C980
0800
0800
0800
0800
0800
ENDCHAR
STARTCHAR c95
ENCODING -1 95
SWIDTH 322 0
DWIDTH 10 0
BBX 8 1 1 -1
BITMAP
FF
ENDCHAR
STARTCHAR c96
ENCODING -1 96
SWIDTH 290 0
DWIDTH 9 0
BBX 4 4 2 10
BITMAP
C0
60
20
10
ENDCHAR
STARTCHAR c97
ENCODING -1 97
SWIDTH 290 0
DWIDTH 9 0
BBX 9 9 0 0
BITMAP
3E00
6700
6700
0700
7F00
E700
E700
FF00
7780
ENDCHAR
STARTCHAR c98
ENCODING -1 98
SWIDTH 322 0
DWIDTH 10 0
BBX 9 13 0 0
BITMAP
F000
7000
7000
7000
7700
7F80
7380
7380
7380
7380
7380
7300
5E00
ENDCHAR
STARTCHAR c99
ENCODING -1 99
SWIDTH 258 0
DWIDTH 8 0
BBX 7 9 1 0
BITMAP
3E
66
E6
E0
E0
E0
E2
E6
78
ENDCHAR
STARTCHAR c100
ENCODING -1 100
SWIDTH 322 0
DWIDTH 10 0
BBX 9 13 1 0
BITMAP
0F00
0700
0700
0700
3F00
6700
E700
E700
E700
E700
E700
FF00
7780
ENDCHAR
STARTCHAR c101
ENCODING -1 101
SWIDTH 258 0
DWIDTH 8 0
BBX 7 9 1 0
BITMAP
3C
66
E6
FE
E0
E0
E2
E6
78
ENDCHAR
STARTCHAR c102
ENCODING -1 102
SWIDTH 161 0
DWIDTH 5 0
BBX 5 13 0 0
BITMAP
18
30
70
70
F8
70
70
70
70
70
70
70
F8
ENDCHAR
STARTCHAR c103
ENCODING -1 103
SWIDTH 290 0
DWIDTH 9 0
BBX 8 13 1 -4
BITMAP
3F
EC
EE
EE
EE
38
40
FC
FE
7E
C2
C6
78
ENDCHAR
STARTCHAR c104
ENCODING -1 104
SWIDTH 322 0
DWIDTH 10 0
BBX 10 13 0 0
BITMAP
F000
7000
7000
7000
7700
7F80
7380
7380
7380
7380
7380
7380
7BC0
ENDCHAR
STARTCHAR c105
ENCODING -1 105
SWIDTH 161 0
DWIDTH 5 0
BBX 5 14 0 0
BITMAP
70
70
70
00
00
F0
70
70
70
70
70
70
70
F8
ENDCHAR
STARTCHAR c106
ENCODING -1 106
SWIDTH 161 0
DWIDTH 5 0
BBX 4 18 0 -4
BITMAP
70
70
70
00
00
F0
70
70
70
70
70
70
70
70
70
70
60
C0
ENDCHAR
STARTCHAR c107
ENCODING -1 107
SWIDTH 322 0
DWIDTH 10 0
BBX 10 13 0 0
BITMAP
F000
7000
7000
7000
73C0
7100
7200
7400
7F00
7700
7780
7380
FBC0
ENDCHAR
STARTCHAR c108
ENCODING -1 108
SWIDTH 161 0
DWIDTH 5 0
BBX 5 13 0 0
BITMAP
F0
70
70
70
70
70
70
70
70
70
70
70
F8
ENDCHAR
STARTCHAR c109
ENCODING -1 109
SWIDTH 483 0
DWIDTH 15 0
BBX 15 9 0 0
BITMAP
F738
7FFC
739C
739C
739C
739C
739C
739C
7BDE
ENDCHAR
STARTCHAR c110
ENCODING -1 110
SWIDTH 322 0
DWIDTH 10 0
BBX 10 9 0 0
BITMAP
F700
7F80
7380
7380
7380
7380
7380
7380
7BC0
ENDCHAR
STARTCHAR c111
ENCODING -1 111
SWIDTH 322 0
DWIDTH 10 0
BBX 8 9 1 0
BITMAP
3C
66
E7
E7
E7
E7
E7
66
3C
ENDCHAR
STARTCHAR c112
ENCODING -1 112
SWIDTH 322 0
DWIDTH 10 0
BBX 9 13 0 -4
BITMAP
F700
7F80
7380
7380
7380
7380
7380
7300
7E00
7000
7000
7000
F800
ENDCHAR
STARTCHAR c113
ENCODING -1 113
SWIDTH 322 0
DWIDTH 10 0
BBX 9 13 1 -4
BITMAP
3D00
6700
E700
E700
E700
E700
E700
FF00
7700
0700
0700
0700
0F80
ENDCHAR
STARTCHAR c114
ENCODING -1 114
SWIDTH 225 0
DWIDTH 7 0
BBX 7 9 0 0
BITMAP
F6
7E
76
76
70
70
70
70
F8
ENDCHAR
STARTCHAR c115
ENCODING -1 115
SWIDTH 258 0
DWIDTH 8 0
BBX 6 9 1 0
BITMAP
7C
CC
C4
F0
FC
3C
8C
CC
F8
ENDCHAR
STARTCHAR c116
ENCODING -1 116
SWIDTH 193 0
DWIDTH 6 0
BBX 6 12 0 0
BITMAP
10
30
70
FC
70
70
70
70
70
70
74
38
ENDCHAR
STARTCHAR c117
ENCODING -1 117
SWIDTH 322 0
DWIDTH 10 0
BBX 10 9 0 0
BITMAP
F780
7380
7380
7380
7380
7380
7380
7F80
3BC0
ENDCHAR
STARTCHAR c118
ENCODING -1 118
SWIDTH 258 0
DWIDTH 8 0
BBX 8 9 0 0
BITMAP
F7
73
73
3A
3A
3C
1C
18
18
ENDCHAR
STARTCHAR c119
ENCODING -1 119
SWIDTH 419 0
DWIDTH 13 0
BBX 13 9 0 0
BITMAP
F7B8
7398
7398
39D0
3BD0
3DE0
1CE0
18C0
18C0
ENDCHAR
STARTCHAR c120
ENCODING -1 120
SWIDTH 258 0
DWIDTH 8 0
BBX 8 9 0 0
BITMAP
F7
72
7C
38
3C
1C
3E
4E
EF
ENDCHAR
STARTCHAR c121
ENCODING -1 121
SWIDTH 258 0
DWIDTH 8 0
BBX 8 13 0 -4
BITMAP
F7
73
73
3A
3A
3C
1C
18
18
10
10
D0
E0
ENDCHAR
STARTCHAR c122
ENCODING -1 122
SWIDTH 258 0
DWIDTH 8 0
BBX 8 9 0 0
BITMAP
FF
C7
8E
9C
3C
39
71
E3
FF
ENDCHAR
STARTCHAR c123
ENCODING -1 123
SWIDTH 225 0
DWIDTH 7 0
BBX 6 17 0 -4
BITMAP
0C
10
30
30
30
30
30
20
C0
20
30
30
30
30
30
10
0C
ENDCHAR
STARTCHAR c124
ENCODING -1 124
SWIDTH 225 0
DWIDTH 7 0
BBX 2 17 3 -4
BITMAP
C0
C0
C0
C0
C0
C0
C0
C0
C0
C0
C0
C0
C0
C0
C0
C0
C0
ENDCHAR
STARTCHAR c125
ENCODING -1 125
SWIDTH 225 0
DWIDTH 7 0
BBX 6 17 1 -4
BITMAP
C0
20
30
30
30
30
30
10
0C
10
30
30
30
30
30
20
C0
ENDCHAR
STARTCHAR c126
ENCODING -1 126
SWIDTH 354 0
DWIDTH 11 0
BBX 9 4 1 3
BITMAP
7880
9C80
9C80
8F00
ENDCHAR
STARTCHAR c128
ENCODING -1 128
SWIDTH 387 0
DWIDTH 12 0
BBX 11 15 0 0
BITMAP
1980
1980
0000
0600
0600
0F00
0F00
1700
1780
1380
2380
3FC0
21C0
61C0
F3E0
ENDCHAR
STARTCHAR c129
ENCODING -1 129
SWIDTH 451 0
DWIDTH 14 0
BBX 12 15 1 0
BITMAP
1980
1980
0000
1F80
70E0
70E0
E070
E070
E070
E070
E070
E070
70E0
70E0
1F80
ENDCHAR
STARTCHAR c130
ENCODING -1 130
SWIDTH 451 0
DWIDTH 14 0
BBX 12 15 1 0
BITMAP
0CC0
0CC0
0000
F870
7020
7020
7020
7020
7020
7020
7020
7020
7020
3840
1F80
ENDCHAR
STARTCHAR c131
ENCODING -1 131
SWIDTH 290 0
DWIDTH 9 0
BBX 9 13 0 0
BITMAP
3600
3600
0000
0000
3E00
6700
6700
0700
7F00
E700
E700
FF00
7780
ENDCHAR
STARTCHAR c132
ENCODING -1 132
SWIDTH 322 0
DWIDTH 10 0
BBX 8 13 1 0
BITMAP
66
66
00
00
3C
66
E7
E7
E7
E7
E7
66
3C
ENDCHAR
STARTCHAR c133
ENCODING -1 133
SWIDTH 322 0
DWIDTH 10 0
BBX 10 13 0 0
BITMAP
3300
3300
0000
0000
F780
7380
7380
7380
7380
7380
7380
7F80
3BC0
ENDCHAR
STARTCHAR c134
ENCODING -1 134
SWIDTH 290 0
DWIDTH 9 0
BBX 9 14 0 0
BITMAP
0800
1C00
3600
6300
0000
3E00
6700
6700
0700
7F00
E700
E700
FF00
7780
ENDCHAR
STARTCHAR c135
ENCODING -1 135
SWIDTH 258 0
DWIDTH 8 0
BBX 7 14 1 0
BITMAP
10
38
6C
C6
00
3C
66
E6
FE
E0
E0
E2
E6
78
ENDCHAR
STARTCHAR c136
ENCODING -1 136
SWIDTH 161 0
DWIDTH 5 0
BBX 5 14 0 0
BITMAP
20
70
70
D8
00
F0
70
70
70
70
70
70
70
78
ENDCHAR
STARTCHAR c137
ENCODING -1 137
SWIDTH 322 0
DWIDTH 10 0
BBX 8 14 1 0
BITMAP
18
3C
66
C3
00
3C
66
E7
E7
E7
E7
E7
66
3C
ENDCHAR
STARTCHAR c138
ENCODING -1 138
SWIDTH 322 0
DWIDTH 10 0
BBX 10 14 0 0
BITMAP
0C00
1E00
3300
6180
0000
F780
7380
7380
7380
7380
7380
7380
7F80
3BC0
ENDCHAR
STARTCHAR c139
ENCODING -1 139
SWIDTH 290 0
DWIDTH 9 0
BBX 9 14 0 0
BITMAP
3000
1800
0800
0400
0000
3E00
6700
6700
0700
7F00
E700
E700
FF00
7780
ENDCHAR
STARTCHAR c140
ENCODING -1 140
SWIDTH 258 0
DWIDTH 8 0
BBX 7 14 1 0
BITMAP
30
18
08
04
00
3C
66
E6
FE
E0
E0
E2
E6
78
ENDCHAR
STARTCHAR c141
ENCODING -1 141
SWIDTH 161 0
DWIDTH 5 0
BBX 5 14 0 0
BITMAP
C0
60
20
10
00
F0
70
70
70
70
70
70
70
78
ENDCHAR
STARTCHAR c142
ENCODING -1 142
SWIDTH 322 0
DWIDTH 10 0
BBX 8 14 1 0
BITMAP
60
30
10
08
00
3C
66
E7
E7
E7
E7
E7
66
3C
ENDCHAR
STARTCHAR c143
ENCODING -1 143
SWIDTH 322 0
DWIDTH 10 0
BBX 10 14 0 0
BITMAP
3000
1800
0800
0400
0000
F780
7380
7380
7380
7380
7380
7380
7F80
3BC0
ENDCHAR
STARTCHAR c144
ENCODING -1 144
SWIDTH 258 0
DWIDTH 8 0
BBX 7 14 1 0
BITMAP
06
0C
08
10
00
3C
66
E6
FE
E0
E0
E2
E6
78
ENDCHAR
STARTCHAR c145
ENCODING -1 145
SWIDTH 258 0
DWIDTH 8 0
BBX 7 13 1 0
BITMAP
6C
6C
00
00
3C
66
E6
FE
E0
E0
E2
E6
78
ENDCHAR
STARTCHAR c146
ENCODING -1 146
SWIDTH 161 0
DWIDTH 5 0
BBX 5 13 0 0
BITMAP
D8
D8
00
00
F0
70
70
70
70
70
70
70
78
ENDCHAR
STARTCHAR c147
ENCODING -1 147
SWIDTH 258 0
DWIDTH 8 0
BBX 7 13 1 -4
BITMAP
3E
66
E2
E2
E0
E0
E2
66
3C
00
18
08
10
ENDCHAR
STARTCHAR c148
ENCODING -1 148
SWIDTH 290 0
DWIDTH 9 0
BBX 9 14 0 0
BITMAP
0300
0600
0400
0800
0000
3E00
7700
7700
0700
7F00
E700
E700
FF00
7780
ENDCHAR
STARTCHAR c149
ENCODING -1 149
SWIDTH 322 0
DWIDTH 10 0
BBX 10 14 0 0
BITMAP
3880
5E80
4700
0000
0000
F700
7F80
7380
7380
7380
7380
7380
7380
7BC0
ENDCHAR
STARTCHAR c155
ENCODING -1 155
SWIDTH 322 0
DWIDTH 10 0
BBX 10 1 0 4
BITMAP
FFC0
ENDCHAR
STARTCHAR c159
ENCODING -1 159
SWIDTH 322 0
DWIDTH 10 0
BBX 0 0 0 0
BITMAP
ENDCHAR
ENDFONT
